<?xml version="1.0" encoding="UTF-8"?> <svg xmlns="http://www.w3.org/2000/svg" width="242" height="77" viewBox="0 0 242 77" fill="none"><g id="TDS Vector Logo"><path id="Vector" d="M14.5923 27.651C15.6827 27.651 16.987 27.3817 18.5052 26.8431V32.747C17.4149 33.2166 16.3728 33.548 15.379 33.7414C14.399 33.9485 13.2466 34.0521 11.9216 34.0521C9.20251 34.0521 7.24259 33.3892 6.04182 32.0634C4.841 30.7238 4.24062 28.673 4.24062 25.9109V16.2368H1.40426V12.9431L5.00663 10.395L7.09768 5.46476H12.3977V10.1672H18.1533V16.2368H12.3977V25.3723C12.3977 26.8914 13.1292 27.651 14.5923 27.651ZM44.979 21.8507C44.979 25.6899 43.9439 28.6868 41.8735 30.8412C39.817 32.9818 36.9323 34.0521 33.2195 34.0521C29.6585 34.0521 26.8222 32.9541 24.7104 30.7583C22.6125 28.5625 21.5635 25.5933 21.5635 21.8507C21.5635 18.0252 22.5918 15.056 24.6483 12.9431C26.7187 10.8163 29.6171 9.75285 33.3437 9.75285C35.6487 9.75285 37.6845 10.2431 39.4512 11.2236C41.2179 12.2042 42.5774 13.6128 43.5298 15.4496C44.4958 17.2726 44.979 19.4063 44.979 21.8507ZM29.7828 21.8507C29.7828 23.867 30.0519 25.4068 30.5902 26.4702C31.1285 27.5198 32.0325 28.0446 33.3023 28.0446C34.5583 28.0446 35.4417 27.5198 35.9523 26.4702C36.4768 25.4068 36.7391 23.867 36.7391 21.8507C36.7391 19.8482 36.4768 18.336 35.9523 17.314C35.4279 16.292 34.5307 15.7811 33.2609 15.7811C32.0187 15.7811 31.1285 16.292 30.5902 17.314C30.0519 18.3222 29.7828 19.8344 29.7828 21.8507ZM69.7757 33.6378L67.1257 22.4514L66.5047 19.0748L66.0904 16.3611H65.9663C65.2901 20.2279 64.8348 22.6655 64.5998 23.6736L62.2192 33.6378H53.7099L47.3128 10.1672H55.2836L57.1881 19.1784C57.7954 22.2719 58.1474 24.8406 58.2441 26.8846H58.3682C58.4098 25.614 58.7892 23.1972 59.5069 19.6341L61.6808 10.1672H70.6246L72.6122 19.7584C73.2473 22.8105 73.6474 25.1859 73.8131 26.8846H73.9372C74.0202 25.835 74.158 24.5299 74.3515 22.9693C74.5445 21.3949 74.7582 20.1313 74.9932 19.1784L77.0633 10.1672H84.8685L78.4299 33.6378H69.7757ZM103.455 33.6378L101.902 30.5305H101.736C100.645 31.8838 99.5347 32.8091 98.4027 33.3063C97.2711 33.8035 95.8079 34.0521 94.0138 34.0521C91.8054 34.0521 90.0661 33.3892 88.7963 32.0634C87.5265 30.7376 86.8918 28.8732 86.8918 26.4702C86.8918 23.9706 87.7615 22.1131 89.5004 20.8978C91.2397 19.6686 93.7585 18.9781 97.0569 18.8262L100.97 18.7019V18.3705C100.97 16.437 100.018 15.4703 98.113 15.4703C96.4015 15.4703 94.2276 16.0503 91.5912 17.2104L89.2521 11.8658C91.9848 10.4572 95.4355 9.75285 99.6036 9.75285C102.613 9.75285 104.938 10.4986 106.581 11.9901C108.237 13.4816 109.065 15.567 109.065 18.2462V33.6378H103.455ZM97.4504 28.3346C98.4305 28.3346 99.2653 28.0239 99.9556 27.4024C100.66 26.781 101.012 25.973 101.012 24.9787V23.1557L99.1482 23.2386C96.4845 23.3353 95.1524 24.3158 95.1524 26.1802C95.1524 27.6165 95.9183 28.3346 97.4504 28.3346ZM128.707 9.75285C129.411 9.75285 130.08 9.80809 130.715 9.91857L131.17 10.0014L130.446 17.6454C129.783 17.4797 128.865 17.3969 127.692 17.3969C125.925 17.3969 124.642 17.8043 123.841 18.6191C123.041 19.4201 122.641 20.5801 122.641 22.0993V33.6378H114.546V10.1672H120.57L121.833 13.9167H122.226C122.903 12.6737 123.841 11.6725 125.042 10.9129C126.257 10.1395 127.478 9.75285 128.707 9.75285ZM141.723 34.0521C140.053 34.0521 138.59 33.5756 137.334 32.6227C136.092 31.6698 135.126 30.2681 134.436 28.4175C133.759 26.5669 133.422 24.4056 133.422 21.9335C133.422 18.1219 134.187 15.1389 135.72 12.9845C137.251 10.8301 139.356 9.75285 142.034 9.75285C143.345 9.75285 144.491 10.0153 145.471 10.5401C146.465 11.0648 147.369 11.9487 148.183 13.1916H148.348C148.086 11.3548 147.955 9.5181 147.955 7.6813V1.40454H156.112V33.6378H150.005L148.266 30.6755H147.955C146.561 32.9265 144.484 34.0521 141.723 34.0521ZM145.036 27.651C146.333 27.651 147.244 27.2436 147.769 26.4288C148.307 25.614 148.597 24.3572 148.638 22.6586V22.0164C148.638 19.9448 148.342 18.4741 147.748 17.604C147.154 16.7202 146.223 16.2782 144.953 16.2782C143.89 16.2782 143.062 16.7823 142.469 17.7904C141.889 18.7848 141.599 20.2073 141.599 22.0578C141.599 23.8808 141.896 25.2687 142.489 26.2217C143.083 27.1745 143.932 27.651 145.036 27.651ZM179.812 26.4288C179.812 28.9423 178.956 30.8412 177.245 32.1255C175.533 33.4099 173.076 34.0521 169.874 34.0521C168.135 34.0521 166.624 33.9554 165.34 33.762C164.056 33.5825 162.745 33.2442 161.406 32.747V26.2631C162.662 26.8155 164.036 27.2712 165.527 27.6303C167.031 27.9894 168.37 28.1689 169.543 28.1689C171.296 28.1689 172.172 27.7684 172.172 26.9674C172.172 26.5531 171.924 26.1871 171.427 25.8695C170.944 25.538 169.522 24.9028 167.162 23.9637C165.009 23.0798 163.504 22.0786 162.649 20.9599C161.793 19.8275 161.365 18.3981 161.365 16.6718C161.365 14.4898 162.207 12.7911 163.891 11.5758C165.575 10.3605 167.956 9.75285 171.033 9.75285C172.579 9.75285 174.029 9.92551 175.381 10.2707C176.748 10.6022 178.162 11.0925 179.625 11.7415L177.431 16.9618C176.354 16.4785 175.216 16.0711 174.015 15.7396C172.814 15.3944 171.834 15.2217 171.075 15.2217C169.75 15.2217 169.087 15.5463 169.087 16.1953C169.087 16.5959 169.315 16.9411 169.771 17.2311C170.24 17.5073 171.579 18.0805 173.787 18.9505C175.429 19.6272 176.651 20.2901 177.452 20.9392C178.266 21.5883 178.859 22.3548 179.232 23.2386C179.619 24.1087 179.812 25.1721 179.812 26.4288Z" fill="white"></path><path id="Vector_2" d="M18.1119 72.1356H17.9256C16.3383 74.442 13.9643 75.5955 10.8036 75.5955C7.83609 75.5955 5.52425 74.5803 3.86798 72.5501C2.22549 70.5199 1.40426 67.6337 1.40426 63.891C1.40426 60.1483 2.23239 57.2412 3.88865 55.1699C5.54492 53.0982 7.84992 52.0627 10.8036 52.0627C13.8815 52.0627 16.2417 53.1812 17.8841 55.4183H18.1533L18.0084 53.7818L17.9256 52.1869V42.9475H21.3623V75.1809H18.5673L18.1119 72.1356ZM11.2383 72.7158C13.5848 72.7158 15.2824 72.0803 16.3314 70.8098C17.3942 69.5256 17.9256 67.4609 17.9256 64.6162V63.891C17.9256 60.6733 17.3872 58.3805 16.3107 57.0137C15.2479 55.6326 13.5433 54.9419 11.1969 54.9419C9.18182 54.9419 7.63597 55.729 6.5594 57.3036C5.4966 58.864 4.96523 61.0737 4.96523 63.9325C4.96523 66.8324 5.4966 69.0213 6.5594 70.4991C7.62219 71.9769 9.18182 72.7158 11.2383 72.7158ZM42.5981 75.1809L41.9149 71.9495H41.7493C40.6175 73.3717 39.4858 74.3386 38.354 74.8495C37.236 75.3467 35.835 75.5955 34.1512 75.5955C31.9014 75.5955 30.1347 75.0152 28.8511 73.8551C27.5813 72.6951 26.9464 71.0449 26.9464 68.9042C26.9464 64.3192 30.6109 61.916 37.9399 61.695L41.7907 61.5708V60.1624C41.7907 58.3805 41.4042 57.0689 40.6313 56.2261C39.8722 55.3701 38.6507 54.9419 36.9668 54.9419C35.0759 54.9419 32.9366 55.5221 30.5488 56.6822L29.4929 54.0514C30.6109 53.4433 31.8324 52.9669 33.1574 52.6218C34.4962 52.2766 35.835 52.1038 37.1739 52.1038C39.8791 52.1038 41.8804 52.7048 43.1777 53.906C44.4891 55.1076 45.1445 57.0344 45.1445 59.686V75.1809H42.5981ZM34.8344 72.7574C36.9737 72.7574 38.6507 72.1705 39.8653 70.9963C41.0937 69.8225 41.7079 68.179 41.7079 66.0661V64.0151L38.2712 64.1601C35.5383 64.2569 33.5646 64.6851 32.35 65.4448C31.1492 66.1903 30.5488 67.3575 30.5488 68.9457C30.5488 70.1885 30.9214 71.1346 31.6667 71.7834C32.4259 72.4326 33.4818 72.7574 34.8344 72.7574ZM59.5483 72.7574C60.1556 72.7574 60.7421 72.7158 61.3083 72.6328C61.8741 72.5364 62.3224 72.4396 62.6537 72.3429V74.9737C62.2813 75.1535 61.7293 75.2985 60.9974 75.409C60.2797 75.5331 59.6313 75.5955 59.0514 75.5955C54.6625 75.5955 52.4678 73.282 52.4678 68.6554V55.1491H49.2176V53.4919L52.4678 52.0627L53.917 47.2152H55.9045V52.4768H62.488V55.1491H55.9045V68.5104C55.9045 69.8778 56.2291 70.9274 56.8775 71.6592C57.5263 72.3915 58.4167 72.7574 59.5483 72.7574ZM81.1363 75.1809L80.453 71.9495H80.2874C79.1554 73.3717 78.0238 74.3386 76.8918 74.8495C75.774 75.3467 74.373 75.5955 72.6893 75.5955C70.4395 75.5955 68.6728 75.0152 67.3893 73.8551C66.1195 72.6951 65.4844 71.0449 65.4844 68.9042C65.4844 64.3192 69.1489 61.916 76.478 61.695L80.3289 61.5708V60.1624C80.3289 58.3805 79.9425 57.0689 79.1695 56.2261C78.4103 55.3701 77.1886 54.9419 75.505 54.9419C73.6142 54.9419 71.4747 55.5221 69.0871 56.6822L68.031 54.0514C69.1489 53.4433 70.3706 52.9669 71.6956 52.6218C73.0343 52.2766 74.373 52.1038 75.7121 52.1038C78.4174 52.1038 80.4186 52.7048 81.7158 53.906C83.0271 55.1076 83.6825 57.0344 83.6825 59.686V75.1809H81.1363ZM73.3726 72.7574C75.5116 72.7574 77.1886 72.1705 78.4032 70.9963C79.632 69.8225 80.2459 68.179 80.2459 66.0661V64.0151L76.8092 64.1601C74.0762 64.2569 72.1028 64.6851 70.8882 65.4448C69.6873 66.1903 69.0871 67.3575 69.0871 68.9457C69.0871 70.1885 69.4594 71.1346 70.2049 71.7834C70.9642 72.4326 72.0198 72.7574 73.3726 72.7574ZM116.383 68.9868C116.383 71.1001 115.596 72.7295 114.022 73.8759C112.449 75.0223 110.24 75.5955 107.397 75.5955C104.388 75.5955 102.042 75.1186 100.358 74.1658V70.9755C101.448 71.5279 102.615 71.9632 103.857 72.281C105.113 72.5983 106.32 72.7574 107.48 72.7574C109.274 72.7574 110.655 72.4741 111.62 71.908C112.587 71.3277 113.07 70.451 113.07 69.2772C113.07 68.3933 112.684 67.6407 111.911 67.0189C111.151 66.3839 109.661 65.6379 107.439 64.7819C105.327 63.9948 103.822 63.3111 102.925 62.7309C102.042 62.1369 101.379 61.4674 100.938 60.7214C100.51 59.9759 100.296 59.085 100.296 58.0491C100.296 56.1987 101.048 54.7417 102.553 53.6784C104.057 52.601 106.12 52.0627 108.743 52.0627C111.186 52.0627 113.574 52.5594 115.906 53.5538L114.685 56.3508C112.408 55.4117 110.344 54.9419 108.494 54.9419C106.866 54.9419 105.637 55.1973 104.809 55.7086C103.981 56.2195 103.567 56.9239 103.567 57.8215C103.567 58.4291 103.719 58.9471 104.022 59.3749C104.34 59.8031 104.844 60.2106 105.534 60.5973C106.224 60.9839 107.549 61.5434 109.509 62.2753C112.2 63.2559 114.015 64.2432 114.954 65.2375C115.906 66.2319 116.383 67.4816 116.383 68.9868ZM131.035 75.5955C127.75 75.5955 125.203 74.587 123.395 72.5709C121.601 70.5407 120.703 67.6752 120.703 63.974C120.703 60.1761 121.615 57.2412 123.437 55.1699C125.272 53.0982 127.881 52.0627 131.263 52.0627C132.353 52.0627 133.443 52.1798 134.534 52.4145C135.624 52.6496 136.48 52.9258 137.101 53.2431L136.045 56.1643C135.286 55.8602 134.458 55.6119 133.561 55.4183C132.663 55.211 131.87 55.1076 131.179 55.1076C126.57 55.1076 124.265 58.0491 124.265 63.9325C124.265 66.722 124.824 68.8627 125.942 70.3542C127.073 71.8457 128.744 72.5917 130.952 72.5917C132.843 72.5917 134.782 72.1842 136.769 71.3693V74.4146C135.251 75.2017 133.34 75.5955 131.035 75.5955ZM145.583 75.1809H142.147V52.4768H145.583V75.1809ZM141.856 46.3243C141.856 45.5372 142.05 44.964 142.436 44.6047C142.823 44.2322 143.306 44.0457 143.885 44.0457C144.438 44.0457 144.914 44.2322 145.314 44.6047C145.714 44.9777 145.915 45.5509 145.915 46.3243C145.915 47.0976 145.714 47.6779 145.314 48.0646C144.914 48.4371 144.438 48.6236 143.885 48.6236C143.306 48.6236 142.823 48.4371 142.436 48.0646C142.05 47.6779 141.856 47.0976 141.856 46.3243ZM162.43 75.5955C159.076 75.5955 156.426 74.5733 154.48 72.5294C152.548 70.4854 151.582 67.6474 151.582 64.0151C151.582 60.3555 152.479 57.4485 154.273 55.2941C156.081 53.1397 158.503 52.0627 161.54 52.0627C164.383 52.0627 166.633 53.0014 168.289 54.8796C169.945 56.7441 170.774 59.2092 170.774 62.2753V64.4504H155.142C155.211 67.1157 155.881 69.1389 157.151 70.5199C158.434 71.9009 160.235 72.5917 162.554 72.5917C164.997 72.5917 167.412 72.0803 169.801 71.0586V74.1243C168.586 74.6493 167.433 75.0223 166.343 75.2432C165.266 75.4779 163.962 75.5955 162.43 75.5955ZM161.498 54.9419C159.677 54.9419 158.22 55.5358 157.13 56.7233C156.054 57.9112 155.418 59.5547 155.225 61.6539H167.088C167.088 59.4854 166.605 57.8281 165.639 56.6822C164.673 55.5221 163.293 54.9419 161.498 54.9419ZM192.154 75.1809V60.4938C192.154 58.643 191.733 57.262 190.891 56.3508C190.049 55.4391 188.731 54.9834 186.937 54.9834C184.563 54.9834 182.824 55.6256 181.72 56.9098C180.615 58.194 180.063 60.314 180.063 63.2696V75.1809H176.627V52.4768H179.421L179.981 55.584H180.146C180.85 54.4655 181.837 53.6024 183.107 52.9947C184.377 52.3734 185.791 52.0627 187.351 52.0627C190.084 52.0627 192.14 52.7256 193.521 54.0514C194.901 55.363 195.591 57.4693 195.591 60.3692V75.1809H192.154ZM211.713 75.5955C208.428 75.5955 205.882 74.587 204.073 72.5709C202.279 70.5407 201.382 67.6752 201.382 63.974C201.382 60.1761 202.293 57.2412 204.115 55.1699C205.95 53.0982 208.559 52.0627 211.941 52.0627C213.031 52.0627 214.121 52.1798 215.212 52.4145C216.302 52.6496 217.158 52.9258 217.779 53.2431L216.723 56.1643C215.964 55.8602 215.136 55.6119 214.239 55.4183C213.342 55.211 212.548 55.1076 211.858 55.1076C207.248 55.1076 204.943 58.0491 204.943 63.9325C204.943 66.722 205.502 68.8627 206.62 70.3542C207.752 71.8457 209.422 72.5917 211.63 72.5917C213.521 72.5917 215.461 72.1842 217.448 71.3693V74.4146C215.93 75.2017 214.018 75.5955 211.713 75.5955ZM232.411 75.5955C229.057 75.5955 226.407 74.5733 224.461 72.5294C222.528 70.4854 221.562 67.6474 221.562 64.0151C221.562 60.3555 222.459 57.4485 224.253 55.2941C226.062 53.1397 228.484 52.0627 231.52 52.0627C234.364 52.0627 236.614 53.0014 238.27 54.8796C239.926 56.7441 240.754 59.2092 240.754 62.2753V64.4504H225.123C225.192 67.1157 225.862 69.1389 227.131 70.5199C228.415 71.9009 230.216 72.5917 232.535 72.5917C234.978 72.5917 237.393 72.0803 239.781 71.0586V74.1243C238.567 74.6493 237.414 75.0223 236.323 75.2432C235.247 75.4779 233.943 75.5955 232.411 75.5955ZM231.479 54.9419C229.657 54.9419 228.201 55.5358 227.111 56.7233C226.034 57.9112 225.399 59.5547 225.206 61.6539H237.069C237.069 59.4854 236.586 57.8281 235.62 56.6822C234.653 55.5221 233.273 54.9419 231.479 54.9419Z" fill="white"></path></g></svg> 